<?xml version="1.0" encoding="UTF-8"?>
<svg id="_圖層_1" data-name="圖層 1" xmlns="http://www.w3.org/2000/svg" viewBox="0 0 800 800">
  <defs>
    <style>
      .cls-1 {
        fill-rule: evenodd;
      }
    </style>
  </defs>
  <path class="cls-1" d="m380.61,128.37c2.43,1.13,4.83,1.51,7.37.8.47-.13,1.09-.41,1.42-.23,2.68,1.49,5.15.12,7.57-.63,1.98-.62,3.91-.91,5.93-.71,4.51.45,9.01,1.08,13.52,1.45,5.56.46,10.94,1.66,16.31,3.14,2.21.61,4.61.84,6.9.75,4.51-.17,8.74,1.05,13.06,1.94,3.13.64,6.26,1.32,9.45,1.76,3.91.54,7.68,2.18,11.49,3.39.86.27,1.64.79,2.5,1.07,11.26,3.74,21.81,9.12,32.42,14.3,3.67,1.79,6.83,4.65,10.19,7.07,2.29,1.66,4.51,3.41,6.78,5.1,8.98,6.69,16.8,14.54,23.43,23.56.71.97,1.21,2.1,1.74,3.18,1.06,2.17,1.96,4.37,3.99,5.96.95.74,1.4,2.18,1.96,3.35,1.53,3.28,3.38,6.48,4.39,9.93,1.03,3.52,3.16,6.23,4.96,9.24,1.14,1.9,1.57,4.24,2.17,6.43.4,1.48.72,2.99.92,4.54.22,1.68.4,3.61,2.31,4.68.49.28.47,1.44.74,2.17.79,2.14,1.59,4.28,2.44,6.4.18.44.59.79.89,1.19,2.01,2.66,3.44,5.44,3.63,8.97.08,1.6,1.79,3.11,3,5.03-.85,1.46-.15,3.01,1.12,4.8,1.07,1.51.54,3.64.17,5.42-.32,1.52-.51,2.74.3,4.29.6,1.15.25,2.84.15,4.28-.11,1.51-.43,3-.63,4.5-.45,3.23.75,6.3,1.03,9.46.12,1.31,1.72,2.5,2.82,3.99-.22.31-.6.86-.97,1.4.02.2.02.39.05.58.36,2.88,2.76,4.06,4.66,5.72,5.71,4.99,11.31,10.08,16.97,15.13,1.73,1.54,3.52,3.01,5.25,4.56,1.09.99,2.09,2.08,3.17,3.09.36.34.81.79,1.23.8,1.97.04,3.04,1.43,4.24,2.62,3.78,3.74,8.18,6.45,12.94,8.85,12.06,6.09,23.08,13.75,32.95,23.02,1.61,1.51,3.01,3.31,5.39,3.73.27.05.73.25.74.4.1,2.49,2.47,2.67,3.87,3.78,2.29,1.82,4.71,3.49,7.13,5.15,1.31.9,2.84,1.5,4.04,2.5,1.21,1.01,2.14,2.34,3.18,3.55,1.05,1.21,2.32,1.9,3.74,1.72,1,1.49,1.9,2.82,2.86,4.24,1-.45,1.71-.78,2.61-1.19.76,3.87,4.44,4.88,6.7,6.86-.68,1.67-1.26,3.09-1.84,4.5.19.09.37.18.55.27.34-.78.67-1.55,1.28-2.97.99,3.9,2.42,6.85,5.78,8.21.36,1.01-1.39,2.04.25,3,.35.21.21,2.07-.28,2.76-1.58,2.22-2.14,5.24-4.84,6.58-.72.36-1.84.86-2.35.56-1.63-.96-2.19,0-2.75,1.16-.3.61-.5,1.27-.94,2.43-.48-1.21-.78-1.97-1.05-2.67-.33-.08-.53-.19-.7-.15-.29.06-.56.3-.84.32-1.33.07-2.68-.09-3.97.15-1.25.23-2.39.97-3.64,1.27-.85.21-1.8.14-2.69.04-4-.44-8.02-.76-11.97-1.47-2.1-.38-4.11-1.38-6.12-2.21-2.28-.95-4.73-.93-7.08-1.47-4.09-.94-8.16-1.98-12.25-2.91-3.03-.68-6.09-1.26-9.14-1.85-14.08-2.72-28.05-5.88-41.66-10.46-4.77-1.61-9.44-3.54-14.26-4.93-2.98-.86-5.68-2.6-8.6-3.1-3.44-.6-6.51-1.95-9.71-3.05-1.25-.43-2.47-.93-3.85-1.46-.66,3.36-1.19,6.3-1.82,9.22-.21.96-.78,1.86-.95,2.82-.64,3.77-3.9,6.55-3.81,10.67.03,1.33-1.33,2.64-1.88,4.03-.91,2.29-2.12,4.48-2.31,7.03-.05.64-.49,1.41-.99,1.82-1.72,1.43-2.27,3.5-3.26,5.34-.99,1.85-2.19,3.58-3.28,5.37-.3.5-.61,1-.86,1.52-.86,1.79-1.64,3.56-3.11,5.03-1.09,1.09-1.66,2.68-2.57,3.96-.51.71-1.23,1.28-1.9,1.85-1.62,1.4-3.32,2.71-4.87,4.17-1.02.96-1.74,2.21-3.36,2.38-.51.05-1.02.6-1.42,1.03-3.69,4.01-7.38,8.02-10.98,12.11-.44.5-.33,1.47-.51,2.44-2.42-.09-3.64,1.83-5.14,3.41-.81.85-1.8,1.87-2.86,2.09-3.41.73-5.47,2.79-6.61,5.54-2.7.62-5.17,1.19-8.22,1.89,1.95,2.28,3.45,4.1,6.21,4.63,4.85.92,9.52,2.31,13.88,4.85,2.94,1.71,6.11,2.99,8.74,5.28,1.24,1.08,2.97,1.57,4.31,2.55,3.54,2.58,6.98,5.32,10.5,7.93,2.99,2.22,5.39,5.02,7.32,8.1,2.16,3.45,5.5,5.58,8.2,8.4,2.11,2.2,3.93,4.67,5.86,7.02,1,1.22,2.14,2.36,2.95,3.69,1.63,2.69,3.04,5.52,4.65,8.22.37.62,1.2.98,2.24,1.78.31.67.91,1.89,1.46,3.14.25.55.61,1.16.55,1.71-.22,2.28.86,3.58,2.76,4.03.41,1.92.55,3.67,1.18,5.22,1.01,2.52.7,5.27,1.81,7.81.57,1.3,1,2.41,2.4,3.12-.52.9-.95,1.66-1.43,2.51.49.42.99.86,1.68,1.46-1.5,1.92-1.73,4.06-.51,6.09,1.37,2.3,1.21,4.96,2.11,7.37,1.16,3.09,2.05,6.29,3.07,9.43.06.19.22.42.17.57-1.15,3.22,1.11,6.56-.38,9.79-.24.52.16,1.32.22,1.99.05.56.27,1.42,0,1.65-.82.71-.85,1.22-.14,1.99.22.23.29.79.17,1.1-1.35,3.6-1.11,7.38-1.1,11.07.08,16.9-3.19,33.17-9.22,48.88-3.33,8.67-6.14,17.58-10.75,25.7-1.78,3.13-3.97,6.04-5.97,9.05-.16.24-.52.54-.47.68,1.13,2.79-2.44,4.54-1.63,7.27.07.22-.37.74-.69.89-1.96.97-2.39,3.06-3.41,4.7-.67,1.08-1.17,2.35-1.68,2.96-2.04,2.45-4.04,4.93-6.07,7.39-.3.37-.67.69-1,1.04-1.15,1.23-2.31,2.44-3.43,3.69-.4.44-.6,1.19-1.07,1.4-3.19,1.43-4.61,4.33-6.16,7.13-.15.26-.36.48-.74.98-4.01-1.18-6.25,2.14-9.01,4.15-1.29.94-2.41,1.96-3.97,2.6-1.39.58-2.42,2-3.64,3-1.23,1.02-2.47,2.02-3.77,2.95-.95.69-1.94,1.17-2.7,2.25-.74,1.04-2.3,1.5-3.49,2.21-3.21,1.92-6.61,3.58-9.58,5.81-6.1,4.61-12.75,8.21-19.74,11.15-13.37,5.62-27.45,8.87-41.69,11.19-8.63,1.4-17.29.64-25.77-2.02-3.76-1.18-7.55-2.08-10.92-4.27-3.97-2.58-7.31-5.71-9.77-9.78-.99-1.64-2.28-3.11-3.16-4.79-.68-1.31-1.25-2.81-1.35-4.26-.3-4.43-.28-8.88-.5-13.32-.28-5.78.43-11.48,1.71-17.06,1.01-4.39,2.62-8.61,4.71-12.66,1.21-2.35,2.73-4.24,4.64-6.07,1.89-1.82,3.01-4.41,4.68-6.49,2.56-3.2,4.85-6.73,8.71-8.57,2.07-.98,3.53-2.2,3.62-4.7.05-1.57,1.31-2.37,2.51-3.15,1.13-.74,2.25-1.51,3.33-2.32,3.06-2.32,6.38-3.84,10.22-4.6,4.59-.9,9.13-2.19,13.42-4.13,1.18-.53,2.16-1.48,3.31-2.09,3.32-1.77,6.56-3.84,10.09-5.06,1.81-.63,3.67-1.78,5.95-1.39,1.64.28,3.66.07,5.1-.7,2-1.06,3.97-2.59,5.34-4.38,3.61-4.72,7.03-9.61,10.25-14.61,1.55-2.41,2.6-5.17,3.66-7.86.65-1.65,1.22-3.36.64-5.29-.37-1.26.47-2.38,1.52-3.24.65-.54,1.71-1.36,1.62-1.88-.35-2.1,1.3-4.18-.04-6.26-.23-.35-.15-1.02,0-1.46,1.4-3.75.76-7.62.6-11.43-.04-.91-.78-1.78-1.24-2.78,2.17-1.54,3.41-3.33,1.78-5.88.13-4.25-2.28-7.93-2.79-11.95-.59-4.64-3.06-8.35-4.66-12.5-.36-.94-.44-2.19-.16-3.15.5-1.71,2.87-3.86,5.1-4.97,1.96,1.69,3.97,3.57,6.13,5.26,3.2,2.51,4.62,6.03,5.75,9.72,1.81,5.89,3.7,11.76,5.23,17.72,2.75,10.75,1.87,21.47-.91,32.07-1.23,4.68-2.79,9.28-4.18,13.92-.57,1.9-1.09,3.81-1.68,5.85.22.17.96.43,1.03.82.11.62-.22,1.33-.41,2.23-2.27-.54-3.21.97-4.15,2.57-3.31,5.57-6.74,11.03-11.15,15.84-5.52,6.02-12.12,9.91-20.27,11.1-2.29.33-4.55.91-6.94,1.39-.44.76-.94,1.61-1.5,2.58-.87-.34-1.69-.65-2.44-.94-.97.18-.58,1.82-2.22,1.45-.92-.21-2.9-.38-3.72,1.47-.18.4-1.95-.13-2.71.28-1.37.74-1.41-.75-1.99-.94-2.31.74-4.51,1.42-6.68,2.15-1.31.45-2.46.71-2.48,2.77-.02,1.63-1.36,3.01-3.23,3.87-4.08,1.87-7.98,4.13-11.58,6.85-1.65,1.25-3.27,2.55-4.82,3.92-1.7,1.51-3.31,3.12-4.92,4.71-.17.17-.09.58-.14,1,.74.25,1.47.5,2.19.75-.06.27-.06.56-.14.59-1.21.4-2.48.65-3.63,1.18-.76.35-1.49.96-2,1.64-1.11,1.48-2.29,2.66-4.15,3.32-1.48.52-2.56,1.75-2.57,3.66,0,1.65-.25,3.13-1.41,4.69-.86,1.16-1.6,3.27-.74,5.15.17.36.42.83.32,1.15-.28.87-.83,1.82.18,2.41.59.34,1.47.15,2.29.22.03.56.06,1.14.1,1.74-1.22.55-2.44,1.1-3.83,1.73.53.72,1.25,1.35,1.14,1.6-1.01,2.22.77,3.6,1.6,5.13,1.71,3.13,3.71,6.11,5.71,9.08.7,1.05,1.73,1.87,2.69,2.9,1.89-1.03,3.43-.63,5.18.36,4.43,2.5,9.48,2.48,14.38,2.91.41.04.85-.44,1.29-.62.71-.29,1.43-.77,2.15-.76,3.39.03,6.78.26,10.17.29,1.7.02,3.41-.16,5.09-.41,7.69-1.12,14.86-3.89,21.72-7.36,3.73-1.89,7.06-4.59,10.82-7.09,1.09.95,2.41.36,3.79-.44,2.98-1.71,6.03-3.3,8.99-5.04,1.01-.59,1.74-1.66,2.75-2.26,2.92-1.73,5.5-3.83,8.12-5.98,2.03-1.66,3.52-3.75,5.49-5.4,1.83-1.52,3.31-3.49,5.23-4.86,1.82-1.3,4.01-2.09,6.06-3.06.76-.36,1.89-.35,2.32-.91,1.63-2.13,4.3-2.97,5.6-5.75,1.21-2.57,3.91-4.54,6.24-6.42,1.44-1.17,2.73-2.28,3.68-3.89.8-1.35,2.02-2.44,2.91-3.74.79-1.15,1.61-2.36,2.03-3.67.65-2.02,1.55-3.71,3.24-5.11,2.32-1.94,3.67-4.46,3.71-7.62.01-1.26-.55-2.86,1.3-3.59.2-.08.03-1.12.03-1.88,1.48-.54,2.77-1.41,2.85-3.3.01-.28.21-.56.35-.83,3.06-5.96,5.5-12.17,7.45-18.57.35-1.14.53-2.33.84-3.49.58-2.13,1.2-4.24,1.79-6.35,2.05-7.32,3.35-14.79,3.05-22.4-.2-5.03.3-10.02.03-15.04-.27-5.05-.36-10.1-.54-15.16-.1-2.62-.19-5.16-1.58-7.61-.74-1.3-.77-3.15-.66-4.73.42-6.02-1.44-11.5-3.67-16.92-.83-2.03-1.68-4.05-2.59-6.06-.82-1.83-1.6-2.25-3.5-2.07-2.68.26-5-1.87-4.59-4.67.22-1.51-.5-1.8-1.42-2.12-.92-.32-1.91-.45-2.99-.69.1-1.07.17-1.92.27-2.97.84.27,1.46.47,2.12.68-.05-.26-.02-.47-.11-.6-.89-1.33-1.91-2.59-2.69-3.98-2.83-5-6.59-8.9-12.16-10.85-.59-.21-1.02-.88-1.5-1.37-.49-.49-.84-1.27-1.42-1.48-2.44-.89-2.48-3.65-4.13-5.13-.28-.25-.17-.94-.25-1.51-1.69-.33-3.55-.38-3.82-2.74-.04-.36-1.11-.79-1.75-.87-2.63-.32-4.58-1.3-6.18-3.69-1.29-1.92-2.2-3.93-3.24-5.93-1.33-2.57-3.65-3.9-6.44-4.86.21-1.42.87-3.18-1.59-3.16-1.82-3.64-6.6-3.67-8.67-7.16-.7-1.18-1.88-.97-3.97-.21-1.76-3.27-4.62-5.35-7.95-6.91-.77-.36-1.49-1-2.02-1.68-.96-1.24-1.95-2.16-3.66-2.28-1.46-.1-4.04-3.09-3.72-4.41.48-1.97-.58-2.22-2-2.42-1.75-.26-2.45-.95-2.44-2.34.01-1.55.56-1.95,2.48-2.26,1.43-.23,2.91-.52,4.19-1.15,1.93-.95,3.8-1.82,5.95-2.34,1.63-.4,3.22-1.94,4.32-3.36,1.1-1.42,2.71-1.52,3.99-2.39,1.13-.77,2.4-1.38,3.67-1.9,4.27-1.76,6.76-5.56,9.97-8.54,1.01-.94,2.33-1.53,3.43-2.39,2.33-1.84,5.47-2.96,5.59-6.75.03-.86.92-1.73,1.5-2.53.69-.95,1.45-1.86,2.21-2.75.29-.35.65-.65,1-.93,2.07-1.68,4.62-3,6.09-5.09,2.15-3.06,4.57-5.97,6.35-9.32,1.13-2.13,2.58-4.08,4.01-6.3-.93-.48-1.7-.87-2.55-1.32.08-.24.11-.53.26-.74,1.23-1.69,2.49-3.37,3.73-5.05.18-.24.27-.6.5-.76,2.33-1.57,3.12-4.44,5.32-6.2,1.1-.87,1.63-2.49,2.36-3.8,2.58-4.61,5.26-9.18,7.65-13.88,1.21-2.37,1.94-4.99,2.75-7.54.25-.81.04-1.75.04-2.75-4.46-1.78-8.9-3.31-13.12-5.3-4.14-1.94-8.67-2.77-12.74-4.85-.59-.3-1.39-.15-2.07-.28-.46-.09-1-.17-1.34-.46-2.57-2.11-5.35-3.71-8.65-4.51-1.7-.41-3.31-1.38-4.81-2.33-.49-.31-.76-1.39-.68-2.07.11-.95.64-1.85,1.12-3.1-1.09-.29-2.1-.6-3.12-.81-1.18-.25-2.01-.68-2.84-1.8-1.34-1.82-3.27-3.2-4.98-4.8q.72-2,3.28-2.02c.15-.5.46-1.06.45-1.6-.05-2.02,1.11-2.83,2.88-3.22,1.64-.36,2.55.3,3.4,1.71.51.85,1.72,1.9,2.54,1.84,2.87-.21,4.89,1.63,7.48,2.57,2.58-2.4,4.88-1.72,7.52.5,2.25,1.89,5.13,3.03,7.69,4.57.75.45,1.37,1.14,2.05,1.72,1.21,1.03,2.31,2.21,3.64,3.03,2.48,1.53,4.97,3.12,7.66,4.18,3.38,1.34,6.96,2.17,10.75,3.3.23,1.53,1.27,2.53,3.11,2.72.68.06,1.35.41,1.98.71,1.29.61,2.49,1.04,4.02.46.74-.28,2.26.08,2.66.67,1.07,1.6,2.68,2.11,4.25,2.64,6.33,2.14,12.69,4.23,19.08,6.21,3.63,1.13,7.31,2.09,11.02,2.93.82.19,1.83-.43,2.9-.72.34.59.92,1.17.96,1.78.09,1.2.75,1.72,1.7,2.15,2.63,1.18,5.22,2.45,8.16,2.66,1.05.08,2.1.01,3.47.01.31.37.86,1.04,1.5,1.81-.4.32-.7.55-1.02.8.13.12.24.29.39.34,1.15.37,2.29.82,3.47,1.04.75.14,1.85.23,2.3-.19,1.47-1.39,2.78-.61,4.17-.07,4.44,1.69,8.87,3.38,13.33,5.04.54.2,1.16.17,1.89.27.42-.97.81-1.85,1.25-2.85,1.74-.15,2.89.48,4.13,1.81,1.3,1.39,3.24,2.19,4.76,3.16,2.8-1.36,3.13-1.48,6.04.4,1.49.97,2.91,1.25,4.63,1.43,2.63.27,5.24,1.05,7.8,1.79,4.82,1.39,9.73,2.01,14.73,2.15.49.01,1.03-.09,1.47-.3,1.68-.79,3.28-.6,4.96.08.95.39,2.02.49,3.55.85-1.07-2.38-1.55-4.27-2.68-6.01-1.41-2.19-2.29-4.71-3.53-7.02-.45-.82-1.22-1.91-1.98-2.04-3.57-.62-5.73-3.18-8.2-5.37-.73-.65-1.8-.9-2.66-1.4-.76-.44-1.45-1-2.18-1.48-.56-.36-1.12-.94-1.71-.98-2.47-.17-4.17-1.25-4.83-3.94-2.14.95-3.54.2-4.62-1.59-.33-.54-1.02-.89-1.6-1.24-1.19-.74-2.43-1.4-3.62-2.13-.51-.32-.95-1.02-1.44-1.04-2.64-.08-3.54-2.44-4.93-3.93-.9-.96-1.7-1.91-2.87-2.5-3.47-1.76-6.62-4.04-10.27-5.57-2.74-1.15-5.06-3.4-7.4-5.36-1.32-1.1-2.28-2.62-.75-4.58-1.61-.98-3.11-1.76-4.47-2.74-3.2-2.3-6.24-4.76-9.18-7.42-2.25-2.04-5.24-3.26-7.91-4.83-1.73-1.02-3.46-2.06-5.24-3.01-.67-.36-1.45-.66-2.21-.71-2.24-.14-2.24-.09-2.32-2.32-.01-.29-.07-.59-.1-.75-2.57-2.52-5.49-4.33-8.44-6.09-2.23-1.32-4.55-2.47-6.78-3.77-5.62-3.26-11.47-6.2-16.71-9.99-2.56-1.85-5.46-2.13-8.01-3.55-1.3-.73-2.32-1.29-2.32-3.1,0-1.08-.93-2.15-1.54-3.45-1.06.65-1.96,1.2-3.14,1.92v-1.76c-1.42-1.12-2.76-1.95-3.8-3.06-1.7-1.81-3.81-1.92-5.92-1.57-1.32.22-2.1,0-2.79-1.09-.7-1.11-.59-2.07.24-3.04,1.06-1.23,1.89-2.34,0-3.73-.91-.67-.2-2.52,1.15-3.17.8-.38,1.73-.5,2.68-.76.38-.61.82-1.29,1.23-1.98,1.41-2.36,2.68-3.22,5.17-2.42,1.76.56,3.8.34,5.21,2.56,1.41,2.23,4.01,3.7,6.09,5.5,1.53-1.15,1.59-2.69,1.73-4.19.14-1.4.23-2.8.35-4.26-3.12-3.56-3.47-7.78-.97-12.07-1.65-.63-1.7-2.18-1.54-3.43.6-4.54-.49-8.87-2.24-12.85-2.54-5.8-5.6-11.39-8.77-16.89-3.04-5.28-5.7-10.69-7.72-16.43-1.55-4.41-3.6-8.57-6.22-12.44-.39-.59-.74-1.25-1.26-1.7-3.69-3.21-5.34-7.89-8.44-11.52-.84-.98-1.79-1.87-2.7-2.79-.14-.14-.44-.2-.48-.35-.78-3.02-3.69-4.08-5.66-5.95-1.24-1.17-3.06-1.74-4.63-2.55-.14-.07-.38.03-.57.07q-2.85.56-4.05-1.83c-.36-.72-.83-1.43-.99-2.21-.78-3.67-2.98-5.98-6.47-7.27-1.11-.41-2.12-1.19-3.06-1.94-1.49-1.19-2.86-2.25-5.01-2.4-1.78-.12-3.64-1.06-5.18-2.07-2.99-1.95-6.49-2.02-9.71-3.08-.47-.15-1.03-.22-1.5-.13-3.84.75-6.9-1.62-10.35-2.32-.16-.81-.29-1.4-.38-1.99-.2-1.29-.83-1.74-2.22-1.82-5.93-.33-11.85-.82-17.77-1.29-.69-.05-1.52-.15-2.02-.55-2.55-2.07-5.79-1.92-8.67-2.88-1.76-.59-3.76-.88-4.86-2.76-.21-.36-.81-.66-1.25-.7-3.79-.35-7.59-.63-11.98-.98.77,1,1.15,1.49,1.74,2.26-.83.08-1.48.37-1.88.16-4.17-2.11-8.87-1.45-13.24-2.57-1.28-.33-2.78.19-4.18.31-1.89.16-3.8.54-5.68.44-4.01-.22-8-1.36-11.99.08-2.55-.85-4.61.41-6.81,1.39-1.15.51-2.58.55-3.88.51-4.12-.11-7.88,1.22-11.6,2.73-2.89,1.18-5.73,2.48-8.71,3.78-.1-.28-.24-.67-.52-1.43-2.89.53-5.92.81-8.78,1.65-11.53,3.37-23.02,6.88-34.51,10.41-2.29.7-4.25,1.87-6.15,3.53-2.64,2.3-5.57,4.41-8.93,5.8-1.33.55-2.4,1.72-3.6,2.6-.32.23-.64.48-.99.65-3.58,1.76-6.95,3.84-10.05,6.37-1.22.99-2.6,1.82-4,2.54-2.87,1.47-4.91,3.84-7.03,6.14-7.73,8.41-15.47,16.81-23.21,25.22-1.98,2.15-3.96,4.3-5.92,6.47-.4.45-.98.98-1,1.48-.07,2.47-1.7,3.74-3.3,5.33-4.31,4.27-7.52,9.39-10.38,14.73-1.19,2.23-2.35,4.48-3.67,6.62-2.83,4.57-5.04,9.41-6.71,14.53-.81,2.49-1.77,4.94-2.72,7.39-.25.65-.72,1.21-1.09,1.81-.84,1.36-1.91,2.64-2.46,4.11-1.31,3.47-2.25,7.08-3.6,10.53-.93,2.4-1.22,4.81-1.33,7.34-.06,1.33-.85,2.6-1.16,3.93-.62,2.65-1.15,5.31-1.69,7.98-.11.57-.1,1.17-.13,1.75-.05,1.07-.1,2.15-.15,3.23-.06,1.39-.4,2.85-.11,4.18.37,1.68.5,3.13-.6,4.56-.26.34-.14.97-.21,1.63.75.42,1.48.84,2.34,1.33-.26.68-.32,1.38-.7,1.72-2.32,2.05-2.42,4.69-2.17,7.47.05.6-.05,1.22.05,1.8.09.57.21,1.45.57,1.6,2.69,1.13,2.97,4.14,4.79,5.92.54.52,1.12.99,1.66,1.51.64.61,1.55,1.15,1.82,1.9,1.13,3.15,3.63,5.31,5.45,7.96,1.77,2.57,3.64,5.07,5.68,7.9,1.25-3.11,2.22-5.85.89-8.84-.04-.09-.12-.22-.09-.28.84-1.82,1.53-3.73,2.57-5.42.89-1.43,2.55-1.27,3.85-.68,1.84.82,3.12,2.35,3.12,4.47,0,2.42-.2,4.84-.4,7.26-.28,3.42-.62,6.84-.96,10.26-.16,1.54.38,2.68,1.53,3.73,2.82,2.59,5.55,5.28,8.16,7.79,2.76-.4,2.24-2.84,3.32-4.03-.6-1.4-1.15-2.67-1.76-4.08.72-.16,1.27-.29,1.96-.44,0-.47.19-1.09-.03-1.43-.78-1.18-1.01-2.17-.21-3.55.53-.92.43-2.25-1.38-2.18,1.53-2.51,2.68-4.92,5.47-5.99,3.4-1.31,5.91,0,6.29,3.6.17,1.6.11,3.24.05,4.85-.27,6.87-.51,13.74-.92,20.6-.11,1.85.48,2.95,1.98,3.99,3,2.06,5.84,4.34,8.77,6.5.79.59,1.67,1.07,3.02,1.92.09-5.52,1.1-10.51.25-15.59-.2-1.18-.28-2.4-.21-3.59.15-2.73.96-3.71,3.54-4.56,2.38-.79,4.56.24,5.25,2.66.33,1.14.36,2.39.38,3.59.13,6.96.29,13.93.27,20.9,0,2.01.71,3.09,2.48,3.98,6.44,3.23,13.09,5.8,20.21,7.05,2.94.52,5.72,1.89,8.91,1.17,1.06-.24,2.54.61,3.6,1.31,3.42,2.25,7.23,3.07,11.19,3.56,2.79.34,5.55.95,8.34,1.27,3.48.4,6.99.82,10.48.82,1.78,0,3.64-.75,5.33-1.49,1.31-.57,2.22-.65,3.18.5.34.4.98.85,1.44.8,2.22-.23,4.54.37,6.63-.92.9-.56.96-.46,2.97.75-.42,2.73-2.95,2.79-4.76,3.39-2.93.98-6,1.46-9.15,1.25-1.08-.07-2,.12-2.45,1.62-.54,1.8-2.43,2.63-4.1,3.16-2.58.81-5.37.94-7.54,2.87-.32.28-.96.25-1.45.29-3.1.23-6.19.45-9.29.62-2.23.13-4.47.15-5.6,3.02-1.62-2.94-4.28-2.08-6.37-2.44-1.35-.23-2.66-.56-4-.85-1.95-.42-3.95-1.26-5.86-1.09-3.79.33-7.13-1.03-10.56-2.07-3.71-1.13-7.34-2.52-10.97-3.78-1.76,2.65.39,5.26-.29,8.02-.63,2.6.16,5.61.57,8.4.4,2.67,1.12,5.28,1.69,7.9-1.13.43-1.96.74-2.78,1.06-2.69,1.04-4.91.16-5.77-2.56-.6-1.91-.88-3.93-1.18-5.92-.5-3.37-.93-6.69-2.2-9.95-.9-2.31-.67-5.08-.92-7.64-.13-1.27-.22-2.54-.36-4.21-4.34-2.39-8.99-4.94-13.79-7.58-.19.58-.44.95-.41,1.3.1,1.48.86,3.24.3,4.35-.75,1.46-.51,2.68-.43,4.06.12,2.07-.94,3.7-2.69,4.29-1.84.62-3.9-.09-4.89-2.03-.77-1.51-1.4-3.18-1.64-4.85-.4-2.75-.43-5.56-.64-8.34-.05-.6-.01-1.28-.28-1.78-.45-.85-.65-1.4,0-2.38.4-.61.17-2.25-.38-2.75-3.45-3.07-7.07-5.94-11.12-9.28.66,2.9,1.12,5.25-.43,7.39-.1.14-.06.4-.04.6.25,2.99.39,5.99.8,8.96.27,1.98-1.53,4.98-3.8,5.73-2.09.7-4.36-.3-5.06-2.61-.48-1.6-.42-3.37-.51-5.06-.04-.85.56-1.76-.46-2.49-.21-.15-.1-.84-.03-1.27.3-1.85.85-3.62-.57-5.42-.68-.86-.76-2.26-.93-3.44-.43-2.97-.82-5.95-1.09-8.94-.16-1.88-1.01-3.23-2.49-4.28-5.82-4.12-10.9-9.01-15.36-14.56-.16-.2-.46-.29-1.24-.76.2,1.38.15,2.39.51,3.21,1.98,4.45,2.69,9.23,3.78,13.92.36,1.56.95,3.08,1.53,4.57,1.8,4.61,3.58,9.23,5.52,13.78,1.22,2.86,2.61,5.67,4.13,8.38,3.16,5.65,6.48,11.2,9.69,16.81,3.07,5.36,7.84,8.9,12.87,12.17.41.27.96.53,1.4.48,2.37-.27,3.92,1.26,5.67,2.41,5.93,3.91,12.29,6.85,19.24,8.46,7.01,1.63,13.65,4.35,20.23,7.22,1.1.48,2.1,1.21,3.07,1.93,3.54,2.65,7.03,5.35,10.56,8.01,1.49,1.13,2.22,2.56,2.1,4.44-.04.7,0,1.42.11,2.11,1.1,7.07-1.09,13.15-5.51,18.59-6.77,8.34-14.26,16-21.9,23.52-3.24,3.19-6.28,6.58-9.41,9.87-.21.22-.49.45-.55.71-.69,3.07-3.16,4.6-5.42,6.27-4.22,3.13-8.51,6.17-12.74,9.3-.78.58-1.62,1.28-2.03,2.12-.96,1.97-2.58,2.87-4.55,3.09-3.11.34-6.23.5-9.36.64-2.39.11-4.73-.63-7.2-.03-1.01.25-2.55-.6-3.49-1.39-3.06-2.56-6.32-4.58-10.13-5.89-3.71-1.28-6.6-3.82-8.77-7.16-1.03-1.59-2.7-2.9-3.29-4.61-.57-1.64-3.2-2.9-1.25-5.37.43-.55-.6-2.28-1.01-3.45-.19-.54-.7-1.01-.77-1.55-.46-3.61-.93-7.22-1.22-10.85-.16-1.96.05-3.95.03-5.92-.02-1.09-.34-2.18-.25-3.25.19-2.34.54-4.67.87-7,.07-.48.55-1,.45-1.41-.85-3.38.55-6.53,1.7-9.36,1.44-3.52,2.71-7.15,6-9.99,5.14-4.43,9.23-9.92,9.74-17.24.33-4.78-1.03-9.01-4.08-12.61-.99-1.17-2.66-1.76-3.99-2.65-1.33-.87-2.58-1.87-3.95-2.67-2.5-1.45-5.04-2.84-7.61-4.15-1.42-.72-2.92-1.31-4.44-1.81-1.32-.44-2.74-1.03-4.07-.92-3.43.29-6.97.49-10.02,3-1.21-.61-2.34-.09-3.62.78-2.29,1.55-5.06,2.49-5.77,5.66-.09.4-.6.87-1.01,1.02-4.09,1.49-5.96,5.31-8.78,8.15-3.31,3.34-5.7,7.37-8.73,10.91-1.49,1.74-2.77,3.65-4.14,5.49-.11.15-.27.36-.24.51.56,3.12-1.56,5.11-3,7.41-.34.54-.39,1.26-.54,1.9-.34,1.43-.34,3.06-1.08,4.24-.87,1.39-1.08,2.72-1.03,4.23.57.34,1.14.69,1.71,1.03-.17.27-.24.54-.36.56-3.34.6-3.56.97-3.89,4.24-.21,2.05-.86,4.06-1.27,6.1-.33,1.66-.66,3.32-.85,5-.06.54.17,1.19.45,1.68,2.04,3.49,2.05,3.48-1.23,5.8.21.39.7.88.61,1.21-.79,2.77-.29,5.43.48,8.11.49,1.73-.52,3.29-1.25,4.62-1.67,3.01-1.67,4.46.82,6.5.23.19.42.43.71.74-.26,3.15-2.38,6.55,1.36,10.1-.5.18-1.05.25-1.43.54-1.13.86-.9,1.88.25,2.31,1.31.5,1.24,1.31,1.16,2.38-.08,1.19-.23,2.46.06,3.59,1.63,6.25,3.08,12.56,5.76,18.5,2.23,4.94,5.02,9.45,8.85,13.3,3.07,3.08,5.97,6.32,9.15,9.27,1.68,1.55,3.83,2.6,5.73,3.92,4.97,3.44,10.69,4.83,16.45,6.19,3.99.94,7.89,2.23,11.86,3.28.94.25,2.06.46,2.94.18,1-.32,1.56-.35,2.4.36.42.35,1.49.04,2.23-.14,3.1-.74,3.09-.76,6.84-.16.26.97.55,2.05.78,2.88-2.73,1.01-5.09,1.89-7.46,2.78-2.82,1.05-5.62,2.13-8.45,3.13-.83.29-1.73.51-2.6.52-2.81.02-5.63-.05-8.44-.15-.67-.02-1.65-.09-1.95-.51-2.21-3.1-5.59-2.6-8.68-3.05-1.57-.23-3.2-.4-4.65-.97-4.38-1.7-8.78-3.41-12.99-5.49-2.01-.99-3.62-2.81-5.4-4.26-.31-.25-.51-.7-.85-.85-4.88-2.08-7.52-6.56-10.95-10.18-.66-.69-1.01-1.73-2.34-1.64-1.14.08-.49-1.11-.84-1.56-4.57-5.93-5.07-10.2-6.56-16.51-.91-3.85-1.46-7.67-1.67-11.59-.08-1.45-.78-2.85-.98-4.3-.54-3.98-1.4-7.99-1.34-11.98.08-5.68-1.01-11.22-1.31-16.84-.43-8.1-.17-16.17,1.33-24.16.58-3.06,1.11-6.14,1.83-9.18.72-3.01,1.67-5.97,2.49-8.96.24-.86.26-1.78.58-2.6.64-1.63,1.58-3.16,2.1-4.83,2.82-9.12,7.56-17.29,12.88-25.07,2.7-3.95,6.27-7.38,9.79-10.69,3.82-3.59,8.06-6.73,12.08-10.12.79-.67,1.4-1.55,2.43-2.7,4.75-1.05,9.84-2.74,14.71-5.2,2.59-1.31,5.43-2.05,8.26-.31.42.26.95.47,1.42.46,4.62-.09,8.57,2.14,12.74,3.63,3.02,1.08,6.07,2.08,9.78,3.35-.69-1.27-.96-1.97-1.39-2.54-5.82-7.73-9.84-16.31-13.37-25.33-4.14-10.58-6.46-21.43-7.87-32.59-.51-4.01-1.24-7.99-1.9-11.97-1.43-8.61-1.42-17.27-.93-25.95.15-2.72.29-5.45.26-8.18-.09-9.67,1.17-19.12,3.72-28.47,1.65-6.03,2.6-12.26,4.21-18.3,2.96-11.12,5.49-22.42,10.94-32.69,2.03-3.82,4.64-7.33,6.93-11.01.57-.92.97-1.94,1.44-2.92.26-.54.45-1.12.76-1.63,1.99-3.25,4.02-6.48,6.02-9.72.52-.85,1-1.74,1.48-2.61,1.78-3.24,3.53-6.49,6.07-9.24.68-.74,1.26-1.57,1.82-2.41,1.33-2.02,2.69-3.98,4.86-5.21.25-.14.51-.38.62-.64,1.1-2.57,3.11-4.14,5.31-5.83,3.32-2.54,6.07-5.82,9.1-8.75.41-.39.99-.61,1.5-.91,1.12-.66,2.5-1.09,3.3-2.02,1.95-2.28,4.22-3.34,7.15-2.74,2.52-3.39,5.05-6.64,8.57-8.8,3.85-2.36,7.87-4.43,11.82-6.62,2.14-1.18,3.93-2.66,5.04-4.94,2.26-4.63,4.63-9.21,6.94-13.81.22-.44.5-.93.5-1.4-.01-3.09,1.65-5.49,3.11-8,1.34-2.31,2.48-4.74,3.86-7.02,1.55-2.55,3.38-4.94,4.88-7.51,1.56-2.67,2.78-5.54,4.32-8.23,2.36-4.12,4.86-8.15,7.3-12.22,2.42-4.05,4.75-8.15,7.3-12.12,2.44-3.8,5.1-7.46,7.65-11.19,1.63-2.38,3.25-4.76,4.85-7.16,2.34-3.51,4.66-7.03,6.99-10.55,1.16-1.76,2.37-3.49,3.46-5.3,3.03-5.04,7.26-9.09,10.97-13.58,1.92-2.32,3.65-4.89,4.98-7.59,2.97-6.02,7.27-10.79,12.58-14.78,3.34-2.51,6.52-5.23,9.98-7.56,1.17-.79,2.75-1.06,3.85-2.14.17-.17.64-.21.87-.1,3.2,1.51,7.34.51,9.85,3.92-.44.74-.59,1.5.54,2.28,1.23.85,2.29,1.97,3.32,3.07.51.55,1.12,1.34,1.1,2-.1,2.5.71,4.98-.29,7.52-.67,1.71-.7,3.69-.94,5.56-.83,6.48-1.09,13.06-3.53,19.24.24,4.07-2.51,7.41-2.79,11.36-.05.69-.12,1.38-.19,2.07-.08.7.09,1.68-.3,2.04-1.55,1.44-.9,3.34-1.22,5-.5,2.52-.39,5.21-1.19,7.61-.49,1.46-.86,2.64-.61,4.2.15.96-.73,2.03-.91,3.09-.64,3.79-1.18,7.59-1.77,11.39-.07.47-.06,1.01-.31,1.37-1.4,1.99-1.36,4.17-.89,6.37.4,1.91.5,3.59-.64,5.44-1.28,2.08-2.27,4.43-2.88,6.8-.63,2.46-.67,5.07-1,7.97Zm-12.19-4c1.35-3.11,2.76-6.15,2.17-9.81-.35-2.15.95-4.37.35-6.63-.04-.17.11-.38.16-.58,1.7-6.07,3.36-12.16,5.12-18.21,1.31-4.5,2.52-9.05,4.17-13.43,2.38-6.29,3.7-12.76,4.57-19.39.67-5.09,1.74-10.13,2.58-15.21.16-.97.16-1.99.08-2.98-.08-1.08-.39-2.15-.5-3.23-.35-3.47-2.83-5.68-6.3-5.61-1.91.04-3.49.83-4.98,1.95-6.37,4.78-12.06,10.15-15.4,17.58-.16.36-.39.79-.71.96-2.84,1.54-4.08,4.4-5.78,6.88-10.17,14.82-20.01,29.88-30.87,44.22-2.23,2.95-4.21,6.1-6.1,9.28-1.53,2.56-2.64,5.37-4.15,7.94-2.66,4.53-4.56,9.38-6.3,14.3-.4,1.12-1.03,2.17-1.6,3.23-1.19,2.2-2.44,4.37-3.59,6.58-1.11,2.13-2.05,4.35-3.21,6.45-1.03,1.88-2.25,3.65-3.72,6.01,1.32-.48,2.06-.71,2.76-1.02,4.79-2.07,9.27-4.78,14.21-6.6,8.45-3.11,16.9-6.1,25.94-7.02,2.89-.29,5.76-.9,8.61-1.47,1.79-.36,3.48-.96,4.45-2.78.23-.44.93-.75,1.47-.87,4.18-.98,8.43-1.64,12.39-3.51,2.43-1.15,3.2-2.38,2.28-4.98-.56-1.58-.16-2.03,1.89-2.05Zm-151.33,324.11c.21,1.73.37,3.12.56,4.5.04.3.2.57.27.86,1.88,7.78.44,15.01-3.84,21.67-2.95,4.59-6.08,9.06-9.17,13.56-3.01,4.38-4.57,9.16-4.59,14.5-.02,5.87.16,11.71,1.16,17.52.66,3.84,2.69,6.92,5.12,9.81,1.09,1.31,2.32,2.07,5.8,3.57.09.04.2.08.26.15,1.51,1.74,3.46,1.13,5.34,1.05,2.66-.11,5.27-1.37,8-.43.35.12.82.02,1.2-.09,5.44-1.58,10.82-3.19,15.03-7.41,2.47-2.48,5.16-4.84,8.07-6.76,3.61-2.39,6.51-5.28,8.69-8.99.41-.69,1.23-1.51,1.93-1.59,2.79-.32,4.13-2.28,5.48-4.32.66-1,1.18-2.16,2.03-2.95,1.84-1.7,3.34-3.62,4.76-5.67,3.17-4.58,6.63-8.95,6.66-14.94,0-1.38-.14-2.4-1.44-2.96-3.22-1.39-6.35-3.12-9.7-3.99-3.37-.88-6.85-1.32-10.13-2.67-3.49-1.44-7.18-2.29-10.53-4.23-5.13-2.97-10.38-5.73-15.44-8.84-5.01-3.08-9.87-6.33-14.14-10.39-.33-.32-.76-.53-1.39-.97Z"/>
  <path class="cls-1" d="m411.62,329.59c-2,1.16-3.67,1.85-5,2.96-1.98,1.64-3.72,3.56-5.56,5.35-1.43,1.39-3.12,1.95-5.1,2.31-2.69.5-5.27,1.64-7.9,2.5-.66.22-1.36.69-1.96.58-1.12-.2-1.93.14-2.8.71-.57.38-1.28.7-1.95.76-3.03.25-5.75,1.38-8.51,2.58-5.14,2.22-10.62,2.96-16.18,3.1-1.32.03-2.48.14-3.72.86-1.05.61-2.53.86-3.76.72-11.93-1.3-23.45-4.19-34.29-9.43-6.08-2.94-11.35-6.98-15.46-12.42-1.52-2.02-3.07-4.01-4.59-6.03-3.03-4.03-5.07-8.46-5.7-13.52-1.09-8.72-2.65-17.37-2.73-26.21-.04-4.39.29-8.7,1.55-12.88,2.31-7.63,5.2-15.11,7.02-22.85,1.18-5.03,3.93-8.75,6.62-12.87,5.34-8.17,12.45-13.92,21.07-18.15,6.9-3.38,13.78-6.76,21.17-8.99,6.24-1.88,12.56-2.89,19.1-2.41,5.03.37,10.12.21,15.12.79,11.29,1.31,21.86,4.74,31.23,11.45,5.15,3.69,9.19,8.19,11.49,14.14,1.16,3.01,2.32,6.03,3.3,9.11,1.69,5.29,3.27,10.62,4.82,15.95,1.16,4,1.67,8.07,1.7,12.26.05,8.9-.46,17.72-2.56,26.4.8,2.92-1.96,5.09-1.69,7.91.02.17-.14.36-.24.54-1.05,1.92-2.37,3.74-3.09,5.77-2.16,6.1-5.42,11.48-9.65,16.33-.84.97-1.41,2.16-1.74,2.67Zm-76.96,5.34c1.21,0,2.2.03,3.19,0,2.45-.07,5.1-.74,7.29.43,2.59,1.39,5.03.98,7.62.55,4.58-.75,9.17-1.52,13.78-2.07,6.76-.82,13.49-1.84,19.42-5.42,8.72-5.26,16.5-11.67,22.84-19.7.96-1.22,1.73-2.79,2.04-4.3.97-4.85,1.72-9.75,2.49-14.63.43-2.69,1.06-5.4,1.04-8.1-.05-10.27-1.94-20.31-4.36-30.24-2.37-9.71-8.7-16.97-15.55-23.81-.62-.62-1.5-1-2.31-1.39-1.18-.57-2.44-.97-3.6-1.57-4.23-2.17-8.43-4.39-12.63-6.59-1.37-.72-2.73-1.03-4.35-.91-3.49.25-7,.21-10.51.29-2.19.05-4.43-.17-6.57.19-2.75.46-5.45,1.31-8.13,2.13-2,.61-3.94,1.44-5.9,2.16-.28.1-.61.26-.86.2-3.02-.8-5.13,1.34-7.58,2.34-.35.14-.81.47-.87.78-.52,2.76-3.1,3.26-4.97,4.38-4.54,2.72-8.07,6.63-12.22,9.8-.08.06-.13.15-.2.23-3.04,3.74-5.24,8.08-6.88,12.46-4.62,12.32-8.17,24.98-8.99,38.21-.28,4.55,1.81,8.73,2.85,13.07.05.19.13.43.28.53,1.93,1.36,2.48,3.58,3.47,5.52.68,1.33,1.31,2.71,2.18,3.92,4.34,6.04,10.04,10.48,16.58,13.92.62.32,1.28.67,1.73,1.18,2.33,2.59,5.01,4.18,8.72,3.1.33,1.13.61,2.08.99,3.36Z"/>
  <path class="cls-1" d="m341.55,591.88c.49,1.36.81,2.8,1.5,4.04.69,1.24,1.3,2.31.92,3.83-.29,1.15-.35,2.33,1.43,2.72,1.07.24,1,1.24.49,2.22-.66,1.26-.81,2.39.92,3.17.66.3,1.05,1.37,1.37,2.16.65,1.61,1.15,3.29,1.81,5.19-.15.18-.57.67-1.04,1.22,2.74.96,2.89,1.21,2.8,4.61.56.24,1.16.5,1.81.77-1.19,2.54-.2,4.72.8,7.11.84-.22,1.57-.41,2.74-.71-.58.83-.99,1.41-1.44,2.07.51,1.8,1,3.65,1.58,5.48.13.39.51.8.88,1,1.36.69,2.4,1.33,1.61,3.23-.27.65.41,1.7.73,2.84.48.21,1.29.56,2.47,1.08-.67.43-1.02.66-1.47.94.33.21.86.35.9.58.3,1.6,1.12,2.78,2.49,3.62.08.05-.01.38-.04.76-.8.15-1.65.31-2.65.49-.12,1.52-.77,2.75-.39,4.53.54,2.49-1.2,4.75-2.61,6.83-.17.25-.73.26-1.11.32-.91.17-1.82.3-2.97.48-2.65-1.34-5.4-3.09-8.16-5.5.22-1.08.38-2.76-2.5-2.99.95-.98,1.46-1.51,1.8-1.86-.33-1.3-.9-2.52-.89-3.72.03-3.55-1.26-6.66-2.74-9.75-1-2.09-1.96-4.21-2.9-6.32-2.05-4.61-4.23-9.17-6.05-13.87-1.37-3.55-2.2-7.31-3.4-10.93-1.13-3.43-2.45-6.79-3.64-10.2-1.5-4.29-3.59-8.37-4.4-12.92-.33-1.84-1.3-3.55-1.93-5.34-1.47-4.18-2.79-8.41-3.25-12.85-.07-.62.32-1.3.52-1.94.43-1.43.74-2.91,1.35-4.26.69-1.5,1.65-2.87,2.65-4.55-.43-.73-1.11-1.71-1.61-2.77-.98-2.1-.8-2.42,1.44-3.18.37-.13.72-.32.95-.42,2.92,1.02,3.72,3.86,5.45,5.8,1.45,1.63,2.82,2.76,4.79,2.45,1.09.66-.4,2.08,1.12,2.32.17.03.46.26.45.37-.41,3.86,3.38,3.81,5.23,5.51,1.33,1.22,2.57,2.35,3.2,4.08.36.99.92,1.91,1.5,3.08,1.52-3.7,1.61-5.6.5-7.35,1.12-1.66,2.71-3.04,2.58-5.34-.04-.75.4-1.52.63-2.29.2-.68.74-1.46.56-2.01-.88-2.73.92-4.63,1.83-6.83.29-.7.36-1.53.37-2.31.04-1.74-.49-3.58,1.32-4.9.24-.18-.06-1.1-.08-1.35,1.8-1.16,3.5-2.31,5.24-3.38,1.77-1.09,3.67-1.85,5.18-3.49,1.28-1.4,5.64.03,6.11,2.02.51,2.23,1.84,2.94,4.02,3.23-1.87,2.93-.96,5.86-.67,8.75.18,1.78.4,3.57.67,5.33.16,1.07.36,2.15.74,3.15.55,1.45-.21,3.04.93,4.5.93,1.2,1.71,2.74,1.33,4.48-.04.19,0,.44.1.59,1.62,2.48,1.74,5.54,3.16,8.11.42.76.78,1.64.85,2.49.13,1.57,1.65,2.38,1.8,4.06.17,1.83,1.61,3.47,1.16,5.51-.04.18.01.44.12.57.73.85,1.69,1.58,2.17,2.55.47.95.44,2.14.65,3.22.28,1.46.22,3.05,1.75,3.98.19.11.29.55.25.81-.35,2.64,1.29,4.83,1.67,7.32.11.75,1.09,1.37,1.85,2.26-.69,2.23-.44,4.62,1.65,6.79,1.26,1.32,2.88,2.66,2.12,4.96-.07.22.35.6.54.91,1.32,2.13,1.81,4.33,1.37,6.91-.2,1.18-.04,1.96-1.29,2.78-.88.58-1.04,2.26-1.62,3.67-1.86.07-3.76.18-5.67.2-.47.01-1.11-.1-1.38-.41-1.6-1.84-3.23-3.68-4.61-5.68-.53-.77-.54-1.97-.59-2.99-.08-1.8.03-3.61,0-5.42-.01-.54-.1-1.16-.38-1.59-1.2-1.84-2.13-3.78-2.92-5.83-.89-2.29-2.2-4.42-3.17-6.69-.5-1.18-.63-2.52-1.02-3.76-.25-.82-.7-1.56-1.01-2.36-.43-1.1-.84-2.23-1.2-3.36-1.44-4.48-2.8-8.98-4.32-13.44-1.44-4.23-2.17-8.63-3.27-12.94-.15-.59-.6-1.11-1.16-2.1-.45.96-.78,1.42-.88,1.92-.76,4.05-1.41,8.11-2.21,12.15-.6,3.04-1.47,6.04-1.97,9.09-.26,1.6.08,3.3.07,4.95-.01,2.29-.54,3.06-2.65,3.18-1.99.11-4.04,0-6-.34-1.53-.27-2.97-.92-3.99-2.43-.79-1.18-2.08-2.02-3.15-3.02-.2.13-.41.26-.61.39Z"/>
  <path class="cls-1" d="m142.61,711.48c.28-1.86-.25-4.03-.86-6.32-1.38-5.2-2.29-10.53-3.39-15.8-.44-2.15-.92-4.3-1.29-6.46-.38-2.26-.63-4.56-1-6.83-.11-.68-.5-1.31-.63-1.99-.22-1.18-.7-2.47-.41-3.54.63-2.4.31-4.75.3-7.13,0-1.5.23-3,.32-4.5.03-.58,0-1.16-.05-1.75-.13-1.87-.29-3.75-.42-5.63-.04-.5.17-1.13-.07-1.49-1.79-2.7.06-5.3.37-7.86.16-1.34,1.59-2.66,3.29-3.13,1.03-.29,1.95-.91,2.98-1.22,2.18-.66,4.39-1.21,6.39-1.74,2.28,2.64,4.31,4.96,6.3,7.31,1.16,1.37.95,3.07.7,4.6-.28,1.7-.87,3.32-.04,5.02.16.32.03.79,0,1.19-.21,3.1-.74,6.22-.57,9.3.36,6.15.64,12.37,1.81,18.39,1.5,7.72,3.82,15.28,5.86,22.88.63,2.36,1.39,4.69,2.27,6.97,1.29,3.33,2.71,6.62,4.15,9.9,1.15,2.63,2.3,5.26,3.65,7.78.65,1.22,1.75,2.19,2.66,3.27,1.29,1.53,2.59,3.06,3.88,4.6.71.85,1.31,1.81,2.13,2.55,2.77,2.5,4.6,2.44,7.31-.08,3.1-2.89,6.85-4.83,10.33-7.16.84-.56,1.84-.93,2.55-1.61,2.37-2.28,5.26-3.69,8.19-5,1.91-.85,3.48-1.94,4.55-3.78.49-.85,1.2-1.67,2-2.23,2.97-2.09,5.98-4.13,9.07-6.04,1.27-.79,2.72-1.37,4.17-1.76,3.78-1.03,7.1.58,8.73,4.17,1.21,2.67,1.5,5.48.6,8.29-2.41,7.52-7.2,12.92-14.54,15.99-.37.16-.74.31-1.07.53-5.81,3.81-11.69,7.5-17.37,11.49-3.04,2.14-5.77,4.75-8.58,7.21-3.17,2.77-5.98,5.95-9.43,8.41-1.38.99-2.85,1.89-4.38,2.63-2.11,1.02-3.94,1.05-5.92-.87-1.74-1.68-3.48-3.19-4.75-5.33-1.74-2.93-3.67-5.78-5.89-8.36-1.97-2.29-3.46-4.91-5.37-7.22-.5-.6-1.26-1-1.71-1.62-.8-1.1-2.94-1.16-2.36-3.47.21-.85-1.49-1.42-1.85-2.8-.52-2.02-2.13-3.74-2.95-5.71-1.18-2.86-2.06-5.84-3.1-8.76-.46-1.31-.75-2.76-1.54-3.84-1.86-2.53-2.09-5.6-3.2-8.36-.34-.86-.96-1.61-1.82-3.01Z"/>
  <path class="cls-1" d="m470.88,587.44c-1.06.71-2.02,1.37-2.99,2.02,1.16,2.93-2.93,2.97-2.99,5.51-.03,1.28-3.52,2.17-4.76,1.28-1.65-1.19-3.76-1.4-5.51-3.04-.41-.85,1.14-2.5-.74-3.46-.29-.15.33-1.78.25-2.7-.47-5.31-1.59-10.52-2.75-15.72-1.03-4.63-1.97-9.28-2.84-13.94-.24-1.28-.5-2.22-1.97-2.66-.89-.26-1.69-1.08-2.33-1.82-1.12-1.31-2.36-1.46-3.78-.71-1.07.56-2.04,1.34-3.14,1.83-1.35.61-2.74,1.22-4.18,1.45-1.15.19-1.82.49-2.07,1.66-.08.36-.49.64-.75.96-1.03,1.29-1.84,2.5-.91,4.35.54,1.08.17,2.59.61,3.75,1.01,2.7,2.26,5.32,3.42,7.97.11.26.32.5.36.77.22,1.65.41,3.31.6,4.87,4.76,1.3,4.23,2.32,4.05,5.03.58.41,1.2.85,1.92,1.36-.27.46-.4.99-.67,1.08-1.86.62-2.3,2.38-2.42,3.79-.18,2.22-2.02,3.98-1.46,6.37.08.33-1,1.18-1.67,1.38-2.56.79-4.96.01-7.26-1.1-.87-.42-1.67-1-2.39-1.44,0-.73.28-1.63-.05-2.14-1.92-3.03-2.71-6.37-3.29-9.86-.36-2.19-.67-4.51-2.34-6.35-.47-.51-.47-1.7-.32-2.51.6-3.31-1.16-6.06-2-9.01-.37-1.3-1.09-2.4-.99-3.92.07-1.1-.79-2.24-1.19-3.38-.49-1.4-1.27-2.79-1.34-4.22-.2-4.1-1.74-7.83-3.4-11.38-1.61-3.45-.67-6.62-.2-9.89.1-.67,1.16-1.2,2.1-2.11.22-.45-1.69-1.41-.16-2.18,1.28-.65.61-1.43.29-2.22,6.6-.43,9.34,2.02,11.59,7.24.72,1.68,1.07,1.63,2.67.85,3.28-1.6,4.68-4.86,6.89-7.4,1.81-2.07,3.62-4.1,6.7-3.7,1.2.15,2.35.74,3.83,1.24,1.2-.44,2.77-1.03,4.54-1.69.69.79,1.29,1.57,1.99,2.25.77.75,1.54,1.78,2.48,2.01,1.93.48,3.43,1.69,4.33,3.11,1.91,3.03,4.35,5.71,5.73,9.12.61,1.52.54,3.1,1.13,4.54.25.61.85,1.07,1.49,1.83-1.61,2.33-.2,5.1-.28,7.81-.04,1.56.52,3.13.57,4.69.07,2.19.07,4.26,1.26,6.34.68,1.19.54,3.21.05,4.6-.46,1.31-.36,2.28.12,3.41,1.14,2.7,1.22,5.86,3.49,8.28-.11.94-.41,2.05-.3,3.12.1.94.66,1.84.98,2.67Z"/>
  <path class="cls-1" d="m296.81,697.12c-3.66,1.74-7.09,3.37-10.83,5.15-.7-.92-1.75-1.76-2.04-2.81-.56-2-2.75-3.2-2.59-5.56.02-.25-1.44-.6-2.39-.97.44-.78.87-1.53,1.35-2.36-.79-2.2-2.34-4.19-2.39-6.82-.01-.68-1.49-1.33-2.48-2.15.99-1.25.77-2.9.14-4.66-.47-1.31-.33-2.9-.98-4.06-1.5-2.64-2-5.6-3.08-8.37-.36-.92-.46-1.93-.82-2.85-.98-2.51-1.88-5.06-3.1-7.45-1.16-2.26-2.7-4.33-4.12-6.57,1.32-2.05,1.84-3.79-.15-5.89-1.72-1.82-.45-5.16,1.86-6.29.63-.31,1.19-.73,1.82-1.05,1.6-.82,3.72-.27,4.82,1.12.52.65,1.24,1.15,1.84,1.74.24.25.45.56.57.88.16.46.08,1.08.36,1.41,1.09,1.3,2.28,2.51,3.65,3.99.43-.98.94-1.83,1.19-2.75.8-3,1.95-5.84,3.56-8.5.25-.41.51-.95.46-1.39-.37-3.17,1.96-5.2,3.37-7.53.7-1.16,2.51-2.07,3.93-2.28,2.9-.42,5.45-1.39,7.94-3.26.98.61,1.99,1.24,3,1.88.76.48,1.45,1.11,2.27,1.43,4.35,1.71,7.07,5.07,9.18,9.02,1.51,2.83,2.9,5.73,4.33,8.61,1.1,2.22,2.32,4.39,3.26,6.67,1.34,3.25,2.44,6.59,3.73,9.86.27.68.94,1.2,1.42,1.79.88,1.07,1.9,2.05,2.59,3.23,1.14,1.96,1.81,4.25,3.14,6.06,2.41,3.29,1.52,6.57.39,9.83-.32.93-.62,1.61-.45,2.66.51,3.05-.85,4.06-3.83,3.07-.38-.13-.74-.3-1.18-.47-2.18,2.94-5.78.67-7.99,2.35-1.11-.57-1.91-1.15-2.8-1.4-2.21-.62-2.46-1.19-1.22-3.24.1-.16.11-.38.17-.6-.73-.64-1.48-1.28-2.21-1.93-.28-.24-.77-.6-.72-.81.62-3.14-2.54-5.08-2.47-8.02-1.82-.92-1.28-2.92-1.4-4.21-.27-2.95-1.53-5-3.72-6.55.33-.84,1.08-1.77.86-2.32-1.43-3.68-3.19-7.23-7.37-8.49-1.21-.37-1.81-1.05-2.38-2.04-.43-.76-1.04-1.52-1.75-1.99-.45-.29-1.43-.29-1.84.02-.35.26-.26,1.16-.27,1.77,0,.36.21.73.37,1.24-.74.41-1.39.76-2.26,1.24.58.64,1.05,1.16,1.52,1.68-.13.17-.24.46-.37.46-2.28.09-2.56,2.03-2.96,3.53-.34,1.26.37,2.83-.04,4.04-.98,2.9.66,5.57.33,8.28-.16,1.27.2,2.23.27,3.32.07,1.15-.33,2.28.19,3.49.94,2.18,1.67,4.44,1.82,6.86.02.42.38,1.01.74,1.19,1.1.53.95,1.36.88,2.31-.11,1.31.1,2.55,1.21,3.48.22.18.44.74.34.89-1.16,1.6.37,2.75.76,4,.51,1.59,1.64,2.94,1.4,4.81-.07.55.59,1.21,1.2,2.33Z"/>
  <path class="cls-1" d="m261.06,725.85c-2.14.37-4.56.77-7.03,1.19-1.19-1.21-1.79-2.72-2.29-4.44-.52-1.78-1.75-3.35-2.65-5.02-.57-1.05-1.26-2.06-1.62-3.17-.9-2.78-1.5-5.66-2.49-8.41-1.27-3.49-2.14-7.06-3.13-10.61-1.51-5.37-3.86-10.5-5.82-15.75-.3-.79-.35-1.68-.62-2.49-.83-2.45-1.72-4.87-2.57-7.32-.2-.59-.38-1.22-.43-1.83-.08-1.07.29-2.32-.12-3.21-1.41-3.08.31-5.99.26-8.98,0-.59.45-1.01-.08-1.78-.5-.73.78-2.11,1.69-1.7,1.46.65,2.35-.15,3.49-.63,1.31-.55,2.75-1.04,3.55.89.12.29.6.69.83.65,2.92-.61,3.05,2.1,4.21,3.53.34.42.13,1.34.5,1.67,1.95,1.77,2.29,4.15,3.13,6.47,2.31,6.38,5.49,12.45,7.8,18.83,1.27,3.52,3.56,6.68,3.89,10.57.06.74.54,1.52,1.01,2.15,2.25,3.02,2.88,6.59,3.56,10.15.26,1.37.83,2.67,1.13,4.03.44,1.97,1.14,3.71-.48,5.87-1.36,1.81-2.65,3.71-4.05,5.53-.7.9-.95,2.15-1.64,3.83Z"/>
  <path class="cls-1" d="m397.61,563.34c2.36-.33,4.52-.65,6.68-.9.78-.09,1.69-.2,2.36.1.61.27,1.5,1.3,1.36,1.63-.68,1.66.48,2.59,1.1,3.79.66,1.28,1.54,2.54.64,4.17-.24.44.17,1.31.4,1.94.97,2.61,1.74,5.26,2.15,8.04.23,1.54.99,3,1.53,4.49.2.56.47,1.1.63,1.68.94,3.43,1.76,6.9,2.83,10.29.65,2.04,1.56,4.04,2.59,5.92.67,1.23.8,2.34.71,3.71-.09,1.39-.38,2.33-1.78,2.72-.08.03-.19.13-.2.22-.67,3.15-3.17,2.38-5.26,2.45-1.25.04-2.51,0-4.1,0-.33-.43-1-1.24-1.6-2.1-.39-.55-.99-1.2-.95-1.77.1-1.7-.98-2.28-2.24-2.74.24-.64.78-1.37.6-1.75-1.18-2.41-.72-5.08-1.33-7.57-.38-1.55-.58-3.16-1.06-4.68-.22-.68-.9-1.25-1.46-1.78-.76-.72-1.61-1.36-2.97-2.49,1.56-.1,2.39-.15,3.28-.2.07-.25.28-.57.2-.79-.5-1.4-1.07-2.77-1.6-4.16-.32-.84-.77-1.68-.84-2.55-.29-3.23-1.78-5.97-3.04-8.88-.88-2.04-1.55-4.58.18-6.81.53-.68.88-1.49,1.17-1.99Z"/>
  <path class="cls-1" d="m215.6,617.51c3.28-2.71,6.91-5.7,10.34-8.53,1.56.34,2.85.78,4.17.85,1.32.08,2.44.17,2.56,2.1,2.08-1.48,3.39-.72,4.89.44,3.15,2.42,4.63,5.77,5.5,9.39.3,1.23-.22,2.8-.75,4.06-.78,1.89-.43,3.98-1.7,5.85-1.87,2.75-4.35,4.21-7.38,5.13-1.22.37-2.37.99-3.99,1.69-1.41-.63-3.21-1.46-5.03-2.25-.63-.27-1.31-.62-1.95-.6-2.45.08-3.68-1.36-4.59-3.35-.27-.59-.78-1.07-1.15-1.61-.32-.47-.95-1.06-.85-1.44.52-2.1-.4-3.79-1.2-5.57-.57-1.27.19-2.27.73-3.36.32-.63.22-1.46.39-2.81Z"/>
  <path class="cls-1" d="m380.7,530.64c1.89-2.11,3.54-4.22,5.47-6.03,2.04-1.9,4.83-2.22,7.38-1.84,1.1.16,2.02,1.95,2.91,3.08.66.84,1.15,1.82,1.72,2.74,1.58,2.51,2.85,5.14,2.84,8.18,0,1.4-.27,2.8-.29,4.21-.08,5.72-5.61,8.09-10.32,5.69-.26-.13-.56-.31-.68-.55-1.4-2.82-4.21-4.12-6.4-6.1-1.04-.93-2.07-2.3-1.32-3.67,1.16-2.12.51-3.57-1.03-4.98-.13-.12-.15-.37-.28-.73Z"/>
  <path class="cls-1" d="m381.86,248.95c.18,2.11.28,4.23.54,6.33.49,3.99.23,8.02-1.17,11.66-1.74,4.51-3.32,9.1-5.91,13.34-1.87,3.07-5.04,4.91-6.48,8.18-.04.09-.12.2-.2.21-3.82.69-6.39,3.84-10.17,4.91-3.43.97-6.62.86-9.97.54-1.1-.11-2.24-.21-3.33-.07-6.69.84-11.14-3.01-15.42-7.25-1.99-1.97-2.94-4.46-3.82-7.05-1.31-3.91-3.21-7.67-4.15-11.65-.74-3.17-.44-6.59-.54-9.9-.01-.47.19-1.08.51-1.4,1.6-1.55,1.5-3.58,1.9-5.55,1.44-7.05,5.08-12.91,10.43-17.67,1.1-.98,2.53-1.68,3.91-2.26,1.84-.77,3.65-1.36,5.3-2.7,1.17-.95,3.2-.9,4.86-1.17,4.77-.78,9.57-1.83,14.38-.41,2.99.88,6.23,1.55,8.75,3.23,2.96,1.97,5.43,4.79,7.8,7.52,2.41,2.78,2.94,5.64,2.79,11.16Zm-38.82-7.87c-6.53.01-11.75,5.17-11.82,11.68-.07,6.51,5.39,11.97,11.93,11.98,7.09,0,11.68-5.93,11.78-11.75.11-6.63-5.23-11.92-11.89-11.91Z"/>
</svg>